# xmcd CD database file
#
# Track frame offsets:
#	150
#	12752
#	30101
#	42178
#	56204
#	75100
#	90286
#	103171
#	115312
#	126978
#	132788
#
# Disc length: 1990 seconds
#
# Revision: 5
# Processed by: cddbd v1.5.2PL0 Copyright (c) Steve Scherf et al.
# Submitted via: FreeDB 13.2
#
DISCID=7a07c40b
DTITLE=Los Lobos - How Will the Wolf Survive?
DYEAR=1984
DGENRE=Latin
TTITLE0=Don't Worry Baby
TTITLE1=A Matter of Time
TTITLE2=Corrido #1
TTITLE3=Our Last Night
TTITLE4=The Breakdown
TTITLE5=I Got Loaded
TTITLE6=Serenata Norteña
TTITLE7=Evangeline
TTITLE8=I Got To Let You Know
TTITLE9=Lil' King of Everything
TTITLE10=Will the Wolf Survive?
EXTD=
EXTT0=
EXTT1=
EXTT2=
EXTT3=
EXTT4=
EXTT5=
EXTT6=
EXTT7=
EXTT8=
EXTT9=
EXTT10=
PLAYORDER=
